%TF.GenerationSoftware,KiCad,Pcbnew,9.0.1*%
%TF.CreationDate,2026-03-06T19:20:49-05:00*%
%TF.ProjectId,DAQ-V1.2,4441512d-5631-42e3-922e-6b696361645f,rev?*%
%TF.SameCoordinates,Original*%
%TF.FileFunction,Soldermask,Top*%
%TF.FilePolarity,Negative*%
%FSLAX46Y46*%
G04 Gerber Fmt 4.6, Leading zero omitted, Abs format (unit mm)*
G04 Created by KiCad (PCBNEW 9.0.1) date 2026-03-06 19:20:49*
%MOMM*%
%LPD*%
G01*
G04 APERTURE LIST*
G04 Aperture macros list*
%AMRoundRect*
0 Rectangle with rounded corners*
0 $1 Rounding radius*
0 $2 $3 $4 $5 $6 $7 $8 $9 X,Y pos of 4 corners*
0 Add a 4 corners polygon primitive as box body*
4,1,4,$2,$3,$4,$5,$6,$7,$8,$9,$2,$3,0*
0 Add four circle primitives for the rounded corners*
1,1,$1+$1,$2,$3*
1,1,$1+$1,$4,$5*
1,1,$1+$1,$6,$7*
1,1,$1+$1,$8,$9*
0 Add four rect primitives between the rounded corners*
20,1,$1+$1,$2,$3,$4,$5,0*
20,1,$1+$1,$4,$5,$6,$7,0*
20,1,$1+$1,$6,$7,$8,$9,0*
20,1,$1+$1,$8,$9,$2,$3,0*%
G04 Aperture macros list end*
%ADD10C,0.010000*%
%ADD11C,0.000000*%
%ADD12C,2.200000*%
%ADD13RoundRect,0.225000X0.225000X0.250000X-0.225000X0.250000X-0.225000X-0.250000X0.225000X-0.250000X0*%
%ADD14RoundRect,0.225000X-0.225000X-0.250000X0.225000X-0.250000X0.225000X0.250000X-0.225000X0.250000X0*%
%ADD15RoundRect,0.250000X0.350000X0.625000X-0.350000X0.625000X-0.350000X-0.625000X0.350000X-0.625000X0*%
%ADD16O,1.200000X1.750000*%
%ADD17RoundRect,0.225000X-0.250000X0.225000X-0.250000X-0.225000X0.250000X-0.225000X0.250000X0.225000X0*%
%ADD18R,1.000000X1.000000*%
%ADD19C,1.000000*%
%ADD20RoundRect,0.225000X0.250000X-0.225000X0.250000X0.225000X-0.250000X0.225000X-0.250000X-0.225000X0*%
%ADD21RoundRect,0.218750X-0.218750X-0.256250X0.218750X-0.256250X0.218750X0.256250X-0.218750X0.256250X0*%
%ADD22RoundRect,0.102000X-0.700000X0.350000X-0.700000X-0.350000X0.700000X-0.350000X0.700000X0.350000X0*%
%ADD23RoundRect,0.102000X-0.700000X0.500000X-0.700000X-0.500000X0.700000X-0.500000X0.700000X0.500000X0*%
%ADD24RoundRect,0.102000X-0.600000X0.600000X-0.600000X-0.600000X0.600000X-0.600000X0.600000X0.600000X0*%
%ADD25RoundRect,0.102000X-1.600000X0.600000X-1.600000X-0.600000X1.600000X-0.600000X1.600000X0.600000X0*%
%ADD26RoundRect,0.102000X-0.400000X0.600000X-0.400000X-0.600000X0.400000X-0.600000X0.400000X0.600000X0*%
%ADD27RoundRect,0.102000X-0.600000X0.350000X-0.600000X-0.350000X0.600000X-0.350000X0.600000X0.350000X0*%
%ADD28RoundRect,0.200000X-0.200000X-0.275000X0.200000X-0.275000X0.200000X0.275000X-0.200000X0.275000X0*%
%ADD29RoundRect,0.200000X0.275000X-0.200000X0.275000X0.200000X-0.275000X0.200000X-0.275000X-0.200000X0*%
%ADD30RoundRect,0.075000X-0.725000X-0.075000X0.725000X-0.075000X0.725000X0.075000X-0.725000X0.075000X0*%
%ADD31RoundRect,0.075000X-0.075000X-0.725000X0.075000X-0.725000X0.075000X0.725000X-0.075000X0.725000X0*%
%ADD32RoundRect,0.102000X1.050000X-2.800000X1.050000X2.800000X-1.050000X2.800000X-1.050000X-2.800000X0*%
%ADD33RoundRect,0.250000X-0.250000X-0.475000X0.250000X-0.475000X0.250000X0.475000X-0.250000X0.475000X0*%
%ADD34RoundRect,0.102000X-0.600000X-0.300000X0.600000X-0.300000X0.600000X0.300000X-0.600000X0.300000X0*%
%ADD35RoundRect,0.200000X0.200000X0.275000X-0.200000X0.275000X-0.200000X-0.275000X0.200000X-0.275000X0*%
%ADD36RoundRect,0.200000X-0.275000X0.200000X-0.275000X-0.200000X0.275000X-0.200000X0.275000X0.200000X0*%
%ADD37RoundRect,0.102000X0.200000X0.200000X-0.200000X0.200000X-0.200000X-0.200000X0.200000X-0.200000X0*%
%ADD38RoundRect,0.250000X-0.850000X0.375000X-0.850000X-0.375000X0.850000X-0.375000X0.850000X0.375000X0*%
%ADD39RoundRect,0.102000X2.000000X-0.600000X2.000000X0.600000X-2.000000X0.600000X-2.000000X-0.600000X0*%
%ADD40R,0.381000X0.330200*%
%ADD41R,0.330200X0.381000*%
%ADD42R,0.599999X0.240000*%
%ADD43R,0.240000X0.599999*%
%ADD44R,0.850001X0.700001*%
%ADD45R,1.450000X0.349999*%
%ADD46R,1.799999X0.349999*%
%ADD47RoundRect,0.102000X-0.337500X0.125000X-0.337500X-0.125000X0.337500X-0.125000X0.337500X0.125000X0*%
%ADD48RoundRect,0.102000X-0.125000X0.287500X-0.125000X-0.287500X0.125000X-0.287500X0.125000X0.287500X0*%
%ADD49RoundRect,0.218750X0.256250X-0.218750X0.256250X0.218750X-0.256250X0.218750X-0.256250X-0.218750X0*%
%ADD50RoundRect,0.102000X0.162500X0.150000X-0.162500X0.150000X-0.162500X-0.150000X0.162500X-0.150000X0*%
%ADD51RoundRect,0.102000X0.150000X0.162500X-0.150000X0.162500X-0.150000X-0.162500X0.150000X-0.162500X0*%
G04 APERTURE END LIST*
D10*
%TO.C,J4*%
X137137500Y-31475000D02*
X135887500Y-31475000D01*
X135737500Y-31625000D01*
X135737500Y-31975000D01*
X135037500Y-31975000D01*
X135037500Y-29775000D01*
X137137500Y-29775000D01*
X137137500Y-31475000D01*
G36*
X137137500Y-31475000D02*
G01*
X135887500Y-31475000D01*
X135737500Y-31625000D01*
X135737500Y-31975000D01*
X135037500Y-31975000D01*
X135037500Y-29775000D01*
X137137500Y-29775000D01*
X137137500Y-31475000D01*
G37*
D11*
%TO.C,U8*%
G36*
X203434754Y-49100963D02*
G01*
X203444135Y-49103808D01*
X203452778Y-49108428D01*
X203460355Y-49114646D01*
X203466573Y-49122223D01*
X203471196Y-49130866D01*
X203474041Y-49140246D01*
X203475001Y-49150000D01*
X203475001Y-49300000D01*
X203474041Y-49309756D01*
X203471196Y-49319136D01*
X203466573Y-49327780D01*
X203460355Y-49335357D01*
X203452778Y-49341574D01*
X203444135Y-49346195D01*
X203434754Y-49349040D01*
X203425001Y-49350000D01*
X202775000Y-49350000D01*
X202765246Y-49349040D01*
X202755866Y-49346195D01*
X202747222Y-49341574D01*
X202739645Y-49335357D01*
X202733427Y-49327780D01*
X202728805Y-49319136D01*
X202725960Y-49309756D01*
X202725000Y-49300000D01*
X202725000Y-49150000D01*
X202725960Y-49140246D01*
X202728805Y-49130866D01*
X202733427Y-49122223D01*
X202739645Y-49114646D01*
X202747222Y-49108428D01*
X202755866Y-49103808D01*
X202765246Y-49100963D01*
X202775000Y-49100000D01*
X203425001Y-49100000D01*
X203434754Y-49100963D01*
G37*
G36*
X203434754Y-51550960D02*
G01*
X203444135Y-51553805D01*
X203452778Y-51558426D01*
X203460355Y-51564643D01*
X203466573Y-51572220D01*
X203471196Y-51580864D01*
X203474041Y-51590244D01*
X203475001Y-51600000D01*
X203475001Y-51750000D01*
X203474041Y-51759754D01*
X203471196Y-51769134D01*
X203466573Y-51777777D01*
X203460355Y-51785354D01*
X203452778Y-51791572D01*
X203444135Y-51796192D01*
X203434754Y-51799037D01*
X203425001Y-51800000D01*
X202775000Y-51800000D01*
X202765246Y-51799037D01*
X202755866Y-51796192D01*
X202747222Y-51791572D01*
X202739645Y-51785354D01*
X202733427Y-51777777D01*
X202728805Y-51769134D01*
X202725960Y-51759754D01*
X202725000Y-51750000D01*
X202725000Y-51600000D01*
X202725960Y-51590244D01*
X202728805Y-51580864D01*
X202733427Y-51572220D01*
X202739645Y-51564643D01*
X202747222Y-51558426D01*
X202755866Y-51553805D01*
X202765246Y-51550960D01*
X202775000Y-51550000D01*
X203425001Y-51550000D01*
X203434754Y-51550960D01*
G37*
G36*
X202934753Y-51550960D02*
G01*
X202944133Y-51553805D01*
X202952777Y-51558428D01*
X202960354Y-51564646D01*
X202966571Y-51572223D01*
X202971192Y-51580866D01*
X202974037Y-51590247D01*
X202974999Y-51600000D01*
X202974999Y-52099999D01*
X202974037Y-52109753D01*
X202971192Y-52119133D01*
X202966571Y-52127777D01*
X202960354Y-52135354D01*
X202952777Y-52141571D01*
X202944133Y-52146194D01*
X202934753Y-52149039D01*
X202924999Y-52149999D01*
X202775000Y-52149999D01*
X202765243Y-52149039D01*
X202755863Y-52146194D01*
X202747220Y-52141571D01*
X202739643Y-52135354D01*
X202733425Y-52127777D01*
X202728805Y-52119133D01*
X202725960Y-52109753D01*
X202725000Y-52099999D01*
X202725000Y-51600000D01*
X202725960Y-51590247D01*
X202728805Y-51580866D01*
X202733425Y-51572223D01*
X202739643Y-51564646D01*
X202747220Y-51558428D01*
X202755863Y-51553805D01*
X202765243Y-51550960D01*
X202775000Y-51550000D01*
X202924999Y-51550000D01*
X202934753Y-51550960D01*
G37*
G36*
X202934753Y-48750961D02*
G01*
X202944133Y-48753806D01*
X202952777Y-48758429D01*
X202960354Y-48764646D01*
X202966571Y-48772223D01*
X202971192Y-48780867D01*
X202974037Y-48790247D01*
X202974999Y-48800001D01*
X202974999Y-49300000D01*
X202974037Y-49309753D01*
X202971192Y-49319134D01*
X202966571Y-49327777D01*
X202960354Y-49335354D01*
X202952777Y-49341572D01*
X202944133Y-49346195D01*
X202934753Y-49349040D01*
X202924999Y-49350000D01*
X202775000Y-49350000D01*
X202765243Y-49349040D01*
X202755863Y-49346195D01*
X202747220Y-49341572D01*
X202739643Y-49335354D01*
X202733425Y-49327777D01*
X202728805Y-49319134D01*
X202725960Y-49309753D01*
X202725000Y-49300000D01*
X202725000Y-48800001D01*
X202725960Y-48790247D01*
X202728805Y-48780867D01*
X202733425Y-48772223D01*
X202739643Y-48764646D01*
X202747220Y-48758429D01*
X202755863Y-48753806D01*
X202765243Y-48750961D01*
X202775000Y-48750001D01*
X202924999Y-48750001D01*
X202934753Y-48750961D01*
G37*
G36*
X203434757Y-51550960D02*
G01*
X203444137Y-51553805D01*
X203452781Y-51558428D01*
X203460358Y-51564646D01*
X203466576Y-51572223D01*
X203471196Y-51580866D01*
X203474041Y-51590247D01*
X203475001Y-51600000D01*
X203475001Y-52099999D01*
X203474041Y-52109753D01*
X203471196Y-52119133D01*
X203466576Y-52127777D01*
X203460358Y-52135354D01*
X203452781Y-52141571D01*
X203444137Y-52146194D01*
X203434757Y-52149039D01*
X203425001Y-52149999D01*
X203275001Y-52149999D01*
X203265248Y-52149039D01*
X203255867Y-52146194D01*
X203247224Y-52141571D01*
X203239647Y-52135354D01*
X203233429Y-52127777D01*
X203228809Y-52119133D01*
X203225964Y-52109753D01*
X203225001Y-52099999D01*
X203225001Y-51600000D01*
X203225964Y-51590247D01*
X203228809Y-51580866D01*
X203233429Y-51572223D01*
X203239647Y-51564646D01*
X203247224Y-51558428D01*
X203255867Y-51553805D01*
X203265248Y-51550960D01*
X203275001Y-51550000D01*
X203425001Y-51550000D01*
X203434757Y-51550960D01*
G37*
G36*
X203434757Y-48750961D02*
G01*
X203444137Y-48753806D01*
X203452781Y-48758429D01*
X203460358Y-48764646D01*
X203466576Y-48772223D01*
X203471196Y-48780867D01*
X203474041Y-48790247D01*
X203475001Y-48800001D01*
X203475001Y-49300000D01*
X203474041Y-49309753D01*
X203471196Y-49319134D01*
X203466576Y-49327777D01*
X203460358Y-49335354D01*
X203452781Y-49341572D01*
X203444137Y-49346195D01*
X203434757Y-49349040D01*
X203425001Y-49350000D01*
X203275001Y-49350000D01*
X203265248Y-49349040D01*
X203255867Y-49346195D01*
X203247224Y-49341572D01*
X203239647Y-49335354D01*
X203233429Y-49327777D01*
X203228809Y-49319134D01*
X203225964Y-49309753D01*
X203225001Y-49300000D01*
X203225001Y-48800001D01*
X203225964Y-48790247D01*
X203228809Y-48780867D01*
X203233429Y-48772223D01*
X203239647Y-48764646D01*
X203247224Y-48758429D01*
X203255867Y-48753806D01*
X203265248Y-48750961D01*
X203275001Y-48750001D01*
X203425001Y-48750001D01*
X203434757Y-48750961D01*
G37*
%TD*%
D12*
%TO.C,H4*%
X214000000Y-26000000D03*
%TD*%
%TO.C,H3*%
X214000000Y-78000000D03*
%TD*%
%TO.C,H2*%
X132000000Y-78000000D03*
%TD*%
%TO.C,H1*%
X132000000Y-26000000D03*
%TD*%
D13*
%TO.C,C59*%
X174975000Y-38150000D03*
X173425000Y-38150000D03*
%TD*%
D14*
%TO.C,C24*%
X205150000Y-65400000D03*
X206700000Y-65400000D03*
%TD*%
%TO.C,C35*%
X158250000Y-63150000D03*
X159800000Y-63150000D03*
%TD*%
D15*
%TO.C,J3*%
X207050000Y-36000000D03*
D16*
X205050000Y-36000000D03*
%TD*%
D17*
%TO.C,C14*%
X181000000Y-48025000D03*
X181000000Y-49575000D03*
%TD*%
D18*
%TO.C,J2*%
X183230000Y-44150000D03*
D19*
X181960000Y-44150000D03*
X183230000Y-42880000D03*
X181960000Y-42880000D03*
X183230000Y-41610000D03*
X181960000Y-41610000D03*
X183230000Y-40340000D03*
X181960000Y-40340000D03*
X183230000Y-39070000D03*
X181960000Y-39070000D03*
%TD*%
D14*
%TO.C,C31*%
X189200000Y-51900000D03*
X190750000Y-51900000D03*
%TD*%
D20*
%TO.C,C17*%
X157300000Y-48175000D03*
X157300000Y-46625000D03*
%TD*%
D21*
%TO.C,D1*%
X141937500Y-79900000D03*
X143512500Y-79900000D03*
%TD*%
D17*
%TO.C,C19*%
X178700000Y-64750000D03*
X178700000Y-66300000D03*
%TD*%
D22*
%TO.C,J4*%
X151087500Y-34425000D03*
X151087500Y-35525000D03*
X151087500Y-36625000D03*
X151087500Y-37725000D03*
X151087500Y-38825000D03*
X151087500Y-39925000D03*
X151087500Y-41025000D03*
X151087500Y-42125000D03*
D23*
X151087500Y-32525000D03*
D24*
X146887500Y-43925000D03*
D25*
X137087500Y-43925000D03*
D26*
X140687500Y-43925000D03*
D27*
X151187500Y-43075000D03*
%TD*%
D20*
%TO.C,C20*%
X159800000Y-50250000D03*
X159800000Y-48700000D03*
%TD*%
D13*
%TO.C,C16*%
X159900000Y-38200000D03*
X158350000Y-38200000D03*
%TD*%
D28*
%TO.C,R(NRESET)1*%
X162750000Y-38000000D03*
X164400000Y-38000000D03*
%TD*%
D29*
%TO.C,R(PULL)4*%
X167386700Y-43675000D03*
X167386700Y-42025000D03*
%TD*%
D17*
%TO.C,C1*%
X205150000Y-46325000D03*
X205150000Y-47875000D03*
%TD*%
D13*
%TO.C,C15*%
X155612500Y-38600000D03*
X154062500Y-38600000D03*
%TD*%
D30*
%TO.C,U1*%
X162755000Y-49750000D03*
X162755000Y-50250000D03*
X162755000Y-50750000D03*
X162755000Y-51250000D03*
X162755000Y-51750000D03*
X162755000Y-52250000D03*
X162755000Y-52750000D03*
X162755000Y-53250000D03*
X162755000Y-53750000D03*
X162755000Y-54250000D03*
X162755000Y-54750000D03*
X162755000Y-55250000D03*
X162755000Y-55750000D03*
X162755000Y-56250000D03*
X162755000Y-56750000D03*
X162755000Y-57250000D03*
X162755000Y-57750000D03*
X162755000Y-58250000D03*
X162755000Y-58750000D03*
X162755000Y-59250000D03*
X162755000Y-59750000D03*
X162755000Y-60250000D03*
X162755000Y-60750000D03*
X162755000Y-61250000D03*
X162755000Y-61750000D03*
D31*
X164430000Y-63425000D03*
X164930000Y-63425000D03*
X165430000Y-63425000D03*
X165930000Y-63425000D03*
X166430000Y-63425000D03*
X166930000Y-63425000D03*
X167430000Y-63425000D03*
X167930000Y-63425000D03*
X168430000Y-63425000D03*
X168930000Y-63425000D03*
X169430000Y-63425000D03*
X169930000Y-63425000D03*
X170430000Y-63425000D03*
X170930000Y-63425000D03*
X171430000Y-63425000D03*
X171930000Y-63425000D03*
X172430000Y-63425000D03*
X172930000Y-63425000D03*
X173430000Y-63425000D03*
X173930000Y-63425000D03*
X174430000Y-63425000D03*
X174930000Y-63425000D03*
X175430000Y-63425000D03*
X175930000Y-63425000D03*
X176430000Y-63425000D03*
D30*
X178105000Y-61750000D03*
X178105000Y-61250000D03*
X178105000Y-60750000D03*
X178105000Y-60250000D03*
X178105000Y-59750000D03*
X178105000Y-59250000D03*
X178105000Y-58750000D03*
X178105000Y-58250000D03*
X178105000Y-57750000D03*
X178105000Y-57250000D03*
X178105000Y-56750000D03*
X178105000Y-56250000D03*
X178105000Y-55750000D03*
X178105000Y-55250000D03*
X178105000Y-54750000D03*
X178105000Y-54250000D03*
X178105000Y-53750000D03*
X178105000Y-53250000D03*
X178105000Y-52750000D03*
X178105000Y-52250000D03*
X178105000Y-51750000D03*
X178105000Y-51250000D03*
X178105000Y-50750000D03*
X178105000Y-50250000D03*
X178105000Y-49750000D03*
D31*
X176430000Y-48075000D03*
X175930000Y-48075000D03*
X175430000Y-48075000D03*
X174930000Y-48075000D03*
X174430000Y-48075000D03*
X173930000Y-48075000D03*
X173430000Y-48075000D03*
X172930000Y-48075000D03*
X172430000Y-48075000D03*
X171930000Y-48075000D03*
X171430000Y-48075000D03*
X170930000Y-48075000D03*
X170430000Y-48075000D03*
X169930000Y-48075000D03*
X169430000Y-48075000D03*
X168930000Y-48075000D03*
X168430000Y-48075000D03*
X167930000Y-48075000D03*
X167430000Y-48075000D03*
X166930000Y-48075000D03*
X166430000Y-48075000D03*
X165930000Y-48075000D03*
X165430000Y-48075000D03*
X164930000Y-48075000D03*
X164430000Y-48075000D03*
%TD*%
D20*
%TO.C,CVAUX1*%
X198900000Y-50725000D03*
X198900000Y-49175000D03*
%TD*%
D32*
%TO.C,Y1*%
X149500000Y-61000000D03*
X149500000Y-51500000D03*
%TD*%
D29*
%TO.C,R(PULL)3*%
X175600000Y-46225000D03*
X175600000Y-44575000D03*
%TD*%
D14*
%TO.C,C23*%
X205250000Y-69200000D03*
X206800000Y-69200000D03*
%TD*%
D20*
%TO.C,C5*%
X175900000Y-67850000D03*
X175900000Y-66300000D03*
%TD*%
D33*
%TO.C,CIN1*%
X204900000Y-40600000D03*
X206800000Y-40600000D03*
%TD*%
D34*
%TO.C,Y2*%
X173100000Y-36550000D03*
X179400000Y-36550000D03*
X179400000Y-35650000D03*
X173100000Y-35650000D03*
%TD*%
D20*
%TO.C,C21*%
X158500000Y-60900000D03*
X158500000Y-59350000D03*
%TD*%
D13*
%TO.C,C6*%
X157950000Y-56950000D03*
X156400000Y-56950000D03*
%TD*%
D35*
%TO.C,R(ADXL367)1*%
X194725000Y-51482200D03*
X193075000Y-51482200D03*
%TD*%
%TO.C,R(PULL)15*%
X176525000Y-72850000D03*
X174875000Y-72850000D03*
%TD*%
%TO.C,R_Pull_MicroSD_6*%
X142325000Y-46950000D03*
X140675000Y-46950000D03*
%TD*%
D29*
%TO.C,R2*%
X199600000Y-54975000D03*
X199600000Y-53325000D03*
%TD*%
D35*
%TO.C,R(PULL)16*%
X173175000Y-70500000D03*
X171525000Y-70500000D03*
%TD*%
D36*
%TO.C,R5*%
X202300000Y-45725000D03*
X202300000Y-47375000D03*
%TD*%
D29*
%TO.C,R1*%
X201300000Y-54975000D03*
X201300000Y-53325000D03*
%TD*%
D28*
%TO.C,R_Pull_MicroSD_5*%
X154012500Y-43200000D03*
X155662500Y-43200000D03*
%TD*%
D37*
%TO.C,U4*%
X186200500Y-61524500D03*
X186200500Y-60724500D03*
X186200500Y-59924500D03*
X186200500Y-59124500D03*
X188600500Y-59124500D03*
X188600500Y-59924500D03*
X188600500Y-60724500D03*
X188600500Y-61524500D03*
%TD*%
D29*
%TO.C,R_Series_MicroSD_1*%
X162650000Y-71475000D03*
X162650000Y-69825000D03*
%TD*%
D28*
%TO.C,R_Pull_MicroSD_3*%
X154012500Y-34000000D03*
X155662500Y-34000000D03*
%TD*%
D33*
%TO.C,CIN2*%
X204900000Y-43700000D03*
X206800000Y-43700000D03*
%TD*%
D35*
%TO.C,R7*%
X146937500Y-79900000D03*
X145287500Y-79900000D03*
%TD*%
D14*
%TO.C,C(BME688)2*%
X186625500Y-63724500D03*
X188175500Y-63724500D03*
%TD*%
D13*
%TO.C,C60*%
X176275000Y-34350000D03*
X174725000Y-34350000D03*
%TD*%
D38*
%TO.C,L1*%
X207650000Y-49375000D03*
X207650000Y-51525000D03*
%TD*%
D33*
%TO.C,COUT1*%
X205200000Y-56300000D03*
X207100000Y-56300000D03*
%TD*%
D38*
%TO.C,FB2*%
X190050000Y-47275000D03*
X190050000Y-49425000D03*
%TD*%
D20*
%TO.C,C57*%
X154050000Y-53000000D03*
X154050000Y-51450000D03*
%TD*%
D39*
%TO.C,LS1*%
X189700000Y-24750000D03*
X189700000Y-35950000D03*
%TD*%
D13*
%TO.C,C9*%
X162525000Y-65400000D03*
X160975000Y-65400000D03*
%TD*%
D40*
%TO.C,U5*%
X189179199Y-54217799D03*
X189179199Y-54717800D03*
X189179199Y-55217800D03*
X189179199Y-55717801D03*
D41*
X189792799Y-55882200D03*
X190292799Y-55882200D03*
D40*
X190906399Y-55717801D03*
X190906399Y-55217800D03*
X190906399Y-54717800D03*
X190906399Y-54217799D03*
D41*
X190292799Y-54053400D03*
X189792799Y-54053400D03*
%TD*%
D29*
%TO.C,R_Series_MicroSD_3*%
X166950000Y-71475000D03*
X166950000Y-69825000D03*
%TD*%
D42*
%TO.C,U8*%
X201425000Y-49699999D03*
X201425000Y-50199998D03*
X201425000Y-50700000D03*
X201425000Y-51199998D03*
D43*
X201850000Y-51850000D03*
X202349999Y-51850000D03*
D44*
X203100000Y-51850000D03*
X203100000Y-51850000D03*
D45*
X203350000Y-50949999D03*
D46*
X203174999Y-50450000D03*
D45*
X203350000Y-49950001D03*
D44*
X203100000Y-49050000D03*
X203100000Y-49050000D03*
D43*
X202349999Y-49050000D03*
X201850000Y-49050000D03*
%TD*%
D20*
%TO.C,C29*%
X160500000Y-58275000D03*
X160500000Y-56725000D03*
%TD*%
D17*
%TO.C,C22*%
X156000000Y-65450000D03*
X156000000Y-67000000D03*
%TD*%
D47*
%TO.C,U2*%
X170162500Y-34850000D03*
D48*
X169350000Y-34787500D03*
X168850000Y-34787500D03*
X168350000Y-34787500D03*
X167850000Y-34787500D03*
D47*
X167037500Y-34850000D03*
X167037500Y-35350000D03*
X167037500Y-35850000D03*
X167037500Y-36350000D03*
X167037500Y-36850000D03*
X167037500Y-37350000D03*
X167037500Y-37850000D03*
X167037500Y-38350000D03*
X167037500Y-38850000D03*
X167037500Y-39350000D03*
D48*
X167850000Y-39412500D03*
X168350000Y-39412500D03*
X168850000Y-39412500D03*
X169350000Y-39412500D03*
D47*
X170162500Y-39350000D03*
X170162500Y-38850000D03*
X170162500Y-38350000D03*
X170162500Y-37850000D03*
X170162500Y-37350000D03*
X170162500Y-36850000D03*
X170162500Y-36350000D03*
X170162500Y-35850000D03*
X170162500Y-35350000D03*
%TD*%
D13*
%TO.C,C7*%
X182525000Y-51800000D03*
X180975000Y-51800000D03*
%TD*%
D33*
%TO.C,COUT3*%
X205200000Y-62350000D03*
X207100000Y-62350000D03*
%TD*%
D13*
%TO.C,C3*%
X171525000Y-32500000D03*
X169975000Y-32500000D03*
%TD*%
D33*
%TO.C,COUT2*%
X205200000Y-59350000D03*
X207100000Y-59350000D03*
%TD*%
D20*
%TO.C,C10*%
X159800000Y-54150000D03*
X159800000Y-52600000D03*
%TD*%
D29*
%TO.C,R_Series_MicroSD_2*%
X164800000Y-71475000D03*
X164800000Y-69825000D03*
%TD*%
D20*
%TO.C,C58*%
X154050000Y-61825000D03*
X154050000Y-60275000D03*
%TD*%
D28*
%TO.C,R(PULL)9*%
X199400000Y-72600000D03*
X201050000Y-72600000D03*
%TD*%
D20*
%TO.C,C4*%
X205150000Y-53975000D03*
X205150000Y-52425000D03*
%TD*%
D49*
%TO.C,FB1*%
X157850000Y-67037500D03*
X157850000Y-65462500D03*
%TD*%
D28*
%TO.C,R(PULL)19*%
X185357198Y-56117801D03*
X187007198Y-56117801D03*
%TD*%
D29*
%TO.C,R(PULL)2*%
X171950000Y-43675000D03*
X171950000Y-42025000D03*
%TD*%
D28*
%TO.C,R_Pull_MicroSD_1*%
X154012500Y-40900000D03*
X155662500Y-40900000D03*
%TD*%
%TO.C,R_Pull_MicroSD_2*%
X154012500Y-36300000D03*
X155662500Y-36300000D03*
%TD*%
%TO.C,R(PULL)18*%
X185367799Y-54067801D03*
X187017799Y-54067801D03*
%TD*%
D14*
%TO.C,C12*%
X163825000Y-45235000D03*
X165375000Y-45235000D03*
%TD*%
D13*
%TO.C,C18*%
X194700000Y-53650000D03*
X193150000Y-53650000D03*
%TD*%
D20*
%TO.C,C8*%
X174400000Y-76692699D03*
X174400000Y-75142699D03*
%TD*%
D14*
%TO.C,C11*%
X170462601Y-76650002D03*
X172012601Y-76650002D03*
%TD*%
D13*
%TO.C,C30*%
X194725000Y-55850000D03*
X193175000Y-55850000D03*
%TD*%
D29*
%TO.C,R(PULL)1*%
X169656700Y-43675000D03*
X169656700Y-42025000D03*
%TD*%
D35*
%TO.C,R(PULL)10*%
X167861700Y-32500000D03*
X166211700Y-32500000D03*
%TD*%
D14*
%TO.C,C9*%
X136325000Y-46950000D03*
X137875000Y-46950000D03*
%TD*%
D36*
%TO.C,R4*%
X200350000Y-45725000D03*
X200350000Y-47375000D03*
%TD*%
D28*
%TO.C,R(PULL)14*%
X182375000Y-62000000D03*
X184025000Y-62000000D03*
%TD*%
%TO.C,R_Pull_MicroSD_4*%
X154012500Y-31700000D03*
X155662500Y-31700000D03*
%TD*%
%TO.C,R(PULL)13*%
X182350000Y-59700000D03*
X184000000Y-59700000D03*
%TD*%
D50*
%TO.C,U6*%
X172250000Y-73725000D03*
X172250000Y-73225000D03*
D51*
X172000000Y-72700000D03*
X171500000Y-72700000D03*
X171000000Y-72700000D03*
D50*
X170750000Y-73225000D03*
X170750000Y-73725000D03*
D51*
X171000000Y-74250000D03*
X171500000Y-74250000D03*
X172000000Y-74250000D03*
%TD*%
D21*
%TO.C,Power_On_LED1*%
X203525000Y-72600000D03*
X205100000Y-72600000D03*
%TD*%
D14*
%TO.C,C(BNO086)1*%
X162975000Y-36050000D03*
X164525000Y-36050000D03*
%TD*%
D13*
%TO.C,C13*%
X175675000Y-32200000D03*
X174125000Y-32200000D03*
%TD*%
M02*
