M48
; DRILL file {KiCad 9.0.1} date 2026-03-06T19:20:44-0500
; FORMAT={-:-/ absolute / metric / decimal}
; #@! TF.CreationDate,2026-03-06T19:20:44-05:00
; #@! TF.GenerationSoftware,Kicad,Pcbnew,9.0.1
; #@! TF.FileFunction,MixedPlating,1,4
FMAT,2
METRIC
; #@! TA.AperFunction,Plated,PTH,ViaDrill
T1C0.300
; #@! TA.AperFunction,Plated,PTH,ComponentDrill
T2C0.650
; #@! TA.AperFunction,Plated,PTH,ComponentDrill
T3C0.750
; #@! TA.AperFunction,NonPlated,NPTH,ComponentDrill
T4C2.200
%
G90
G05
T1
X134.3Y-29.7
X135.2Y-46.95
X137.9Y-48.25
X138.85Y-45.85
X140.487Y-79.9
X143.9Y-46.95
X145.65Y-48.9
X145.65Y-49.9
X145.65Y-51.0
X145.65Y-52.0
X145.65Y-53.15
X145.65Y-54.3
X145.65Y-55.6
X145.65Y-56.8
X145.65Y-57.95
X145.65Y-59.1
X145.65Y-60.25
X145.65Y-61.4
X145.65Y-62.55
X146.1Y-63.85
X146.4Y-48.1
X146.65Y-45.6
X147.2Y-64.95
X147.4Y-47.55
X148.45Y-47.55
X148.55Y-64.95
X149.5Y-47.55
X149.75Y-64.95
X150.65Y-47.55
X151.05Y-64.95
X151.75Y-47.55
X152.2Y-64.95
X152.4Y-32.15
X152.6Y-40.3
X152.65Y-44.2
X152.85Y-47.55
X153.35Y-64.95
X153.95Y-47.55
X154.05Y-54.5
X154.05Y-63.225
X154.5Y-64.45
X154.9Y-48.1
X155.35Y-63.6
X155.375Y-56.95
X155.7Y-48.9
X155.8Y-47.3
X155.8Y-58.8
X155.8Y-59.8
X155.8Y-61.1
X155.8Y-62.4
X156.0Y-68.15
X156.5Y-49.7
X156.5Y-50.7
X156.5Y-51.65
X156.5Y-52.55
X157.037Y-34.05
X157.037Y-36.3
X157.05Y-39.1
X157.05Y-43.2
X157.088Y-31.7
X157.1Y-40.9
X157.2Y-59.375
X158.1Y-36.8
X158.5Y-46.1
X158.5Y-52.95
X158.5Y-53.85
X158.67Y-49.025
X158.67Y-49.925
X159.105Y-57.0
X159.25Y-64.4
X159.3Y-57.8
X159.3Y-65.8
X159.875Y-37.0
X160.5Y-35.4
X161.25Y-67.0
X161.35Y-36.35
X162.25Y-67.0
X162.5Y-39.45
X164.195Y-43.785
X164.45Y-54.85
X164.9Y-50.7
X164.987Y-40.25
X164.995Y-43.785
X165.137Y-32.5
X165.587Y-41.35
X165.937Y-34.9
X166.387Y-42.05
X166.7Y-49.8
X167.78Y-45.45
X168.5Y-40.85
X168.85Y-51.25
X169.05Y-76.65
X169.657Y-44.65
X169.8Y-71.155
X169.975Y-30.875
X170.5Y-71.655
X171.35Y-53.7
X171.5Y-37.3
X171.95Y-44.65
X172.0Y-78.2
X172.1Y-46.35
X172.55Y-32.5
X172.7Y-65.8
X173.05Y-42.95
X173.162Y-68.732
X173.85Y-45.519
X174.15Y-31.0
X174.687Y-77.755
X175.05Y-50.25
X175.05Y-70.8
X175.7Y-31.0
X175.8Y-75.2
X176.25Y-38.15
X176.25Y-53.45
X176.4Y-71.3
X176.5Y-69.275
X177.55Y-34.35
X177.9Y-72.9
X178.7Y-45.2
X179.8Y-53.65
X180.1Y-65.1
X180.1Y-66.0
X181.0Y-59.7
X181.0Y-62.0
X181.1Y-46.8
X182.1Y-49.6
X183.1Y-56.256
X183.3Y-45.8
X183.8Y-51.8
X184.382Y-56.118
X184.393Y-54.568
X185.2Y-39.2
X185.2Y-41.7
X185.2Y-42.9
X186.976Y-64.999
X187.8Y-44.3
X187.826Y-64.999
X187.85Y-51.9
X189.7Y-22.8
X190.05Y-45.925
X190.093Y-54.982
X190.15Y-60.65
X190.493Y-56.782
X195.925Y-53.65
X195.925Y-55.85
X196.95Y-48.9
X197.35Y-49.5
X197.75Y-48.9
X197.875Y-72.6
X199.05Y-46.1
X200.05Y-51.9
X201.65Y-56.25
X202.45Y-53.4
X203.1Y-52.75
X203.95Y-54.0
X203.95Y-59.35
X203.95Y-56.26
X203.95Y-62.4
X204.075Y-65.45
X204.175Y-69.25
X206.175Y-72.55
X206.3Y-46.95
X206.5Y-52.9
X207.05Y-38.5
X207.875Y-65.35
X207.975Y-69.15
X208.15Y-40.6
X208.2Y-43.7
X208.45Y-62.35
X208.5Y-56.3
X208.5Y-59.35
T2
X181.96Y-39.07
X181.96Y-40.34
X181.96Y-41.61
X181.96Y-42.88
X181.96Y-44.15
X183.23Y-39.07
X183.23Y-40.34
X183.23Y-41.61
X183.23Y-42.88
X183.23Y-44.15
T3
X205.05Y-36.0
X207.05Y-36.0
T4
X132.0Y-26.0
X132.0Y-78.0
X214.0Y-26.0
X214.0Y-78.0
M30
